<svg width="360" height="229" viewBox="0 0 360 229" fill="none" xmlns="http://www.w3.org/2000/svg">
<g filter="url(#filter0_i_182_12901)">
<path d="M411.183 122.955C404.724 125.165 119.671 204.246 115.491 205.237C112.66 206.121 109.646 206.239 106.754 205.579C103.862 204.919 101.196 203.504 99.0259 201.477C91.4265 194.542 94.5423 184.914 96.6954 180.036C99.2286 174.295 154.121 58.4805 154.121 58.4805L-65.0195 150.619C-74.1641 153.82 -77.2798 146.275 -77.2798 146.275C-77.2798 146.275 -81.1049 137.917 -71.1243 133.192L169.523 24.7955C173.475 23.0172 180.897 19.5116 186.672 24.7955C192.448 30.0794 190.193 38.0561 188.42 42.9844C187.559 45.3215 148.143 155.115 148.143 155.115C148.143 155.115 382.736 54.1619 390.336 51.2913C405.205 45.6263 418.732 48.9796 428.333 60.208C432.615 65.346 435.599 71.4436 437.032 77.9839C438.465 84.5242 438.305 91.3146 436.565 97.7797C433.247 109.135 425.926 117.823 411.234 122.853L411.183 122.955Z" fill="white"/>
</g>
<g filter="url(#filter1_d_182_12901)">
<ellipse cx="250.664" cy="114.742" rx="31.9039" ry="32.0715" transform="rotate(-21.0888 250.664 114.742)" fill="#EA0027"/>
</g>
<path d="M297.187 90.6308C291.208 97.734 277.636 112.379 271.18 114.134" stroke="black" stroke-width="1.8478"/>
<path d="M228.877 128.726C222.695 124.916 209.357 118.434 205.455 122.979C201.553 127.524 197.87 132.379 196.516 134.238" stroke="black" stroke-width="1.8478"/>
<path d="M272.105 133.208C282.661 131.782 304.548 132.155 307.654 145.059C309.893 144.196 312.319 143.26 313.252 142.9" stroke="black" stroke-width="1.8478"/>
<path d="M253.377 140.724C250.499 150.942 244.009 168.722 233.921 169.087C231.844 169.006 229.113 168.493 227.747 168.236L226.314 174.371" stroke="black" stroke-width="1.8478"/>
<path d="M254.699 107.016C252.073 109.302 245.786 113.156 241.641 110.289" stroke="black" stroke-width="1.8478"/>
<path d="M240.291 103.759C240.883 101.757 243.137 98.4046 247.415 101.011" stroke="black" stroke-width="1.8478"/>
<path d="M255.047 98.0683C255.639 96.0664 257.892 92.7143 262.171 95.321" stroke="black" stroke-width="1.8478"/>
<path d="M220.057 105.098L267.125 86.9468C266.085 86.2707 263.448 84.8393 261.222 84.5227C258.439 84.1269 224.601 97.1763 222.919 98.1188C221.573 98.8729 220.45 103.086 220.057 105.098Z" fill="#D9D9D9"/>
<path d="M216.04 96.9525L221.673 100.95L221.19 103.486L214.502 108.122L214.082 104.759L220.401 101.44L213.776 100.176L216.04 96.9525Z" fill="#D9D9D9"/>
<path d="M315.879 143.65C314.82 140.298 309.38 143.218 306.792 145.097L308.075 148.422C311.117 148.228 316.938 147.002 315.879 143.65Z" fill="#E3E3E3"/>
<path d="M227.449 176.267C230.935 176.596 230.342 170.421 229.609 167.292L226.064 167.18C225.073 170.072 223.964 175.938 227.449 176.267Z" fill="#E3E3E3"/>
<path d="M59.2282 116.472C59.2282 113.628 62.3078 111.85 64.7716 113.272L116.821 143.323C119.285 144.745 119.285 148.301 116.821 149.724L64.7716 179.775C62.3078 181.197 59.2282 179.419 59.2282 176.574L59.2282 116.472Z" fill="#3CD1E6"/>
<path d="M84.4782 139.046C82.23 141.712 79.4539 145.103 71.9331 146.289" stroke="black" stroke-width="1.8478"/>
<path d="M83.3086 127.729C83.029 129.796 81.312 133.454 76.681 131.556" stroke="black" stroke-width="1.8478"/>
<path d="M69.5806 135.655C69.301 137.721 67.584 141.38 62.953 139.481" stroke="black" stroke-width="1.8478"/>
<path d="M94.4722 132.851C97.9929 134.22 105.358 136.416 106.655 134.247C108.275 131.537 118.084 117 118.681 114.881C120.319 113.935 121.639 113.173 122.094 112.911" stroke="black" stroke-width="1.8478"/>
<path d="M61.334 151.983C60.7592 155.717 58.9781 163.193 56.4521 163.232C53.2946 163.28 35.8007 164.506 33.6671 163.964C32.0289 164.909 30.7092 165.671 30.2542 165.934" stroke="black" stroke-width="1.8478"/>
<path d="M92.1878 157.319L109.08 189.856L114.287 186.85" stroke="black" stroke-width="1.8478"/>
<path d="M116.626 187.606C115.586 184.258 110.119 187.157 107.515 189.025L108.779 192.346C111.828 192.16 117.665 190.953 116.626 187.606Z" fill="#E3E3E3"/>
<path d="M87.3266 162.018L80.9436 190.321L99.006 181.155L99.499 185.288" stroke="black" stroke-width="1.8478"/>
<path d="M98.6929 188.471C102.175 188.878 101.741 182.705 101.089 179.568L97.5415 179.376C96.4747 182.238 95.2113 188.064 98.6929 188.471Z" fill="#E3E3E3"/>
<rect x="154.848" y="3.52051" width="50.5065" height="62.8252" rx="4.92746" transform="rotate(18.5142 154.848 3.52051)" fill="#FC9800"/>
<path d="M177.487 41.6303C173.559 41.7223 168.624 41.9102 162.009 36.4474" stroke="black" stroke-width="1.8478"/>
<path d="M186.166 32.1954C184.212 33.502 179.843 34.7836 177.989 29.4572" stroke="black" stroke-width="1.8478"/>
<path d="M169.23 26.5239C167.276 27.8305 162.907 29.1121 161.053 23.7857" stroke="black" stroke-width="1.8478"/>
<path d="M188.815 46.0736C192.598 50.7054 200.009 60.8603 199.398 64.4245C198.786 67.9888 177.344 58.6099 166.7 53.4749L170.688 48.08" stroke="black" stroke-width="1.8478" stroke-linejoin="round"/>
<path d="M150.534 33.2546C144.554 34.6172 132.174 38.1444 130.497 41.352C128.821 44.5596 152.376 50.249 164.363 52.6927L164.358 45.9604" stroke="black" stroke-width="1.8478" stroke-linejoin="round"/>
<path d="M163.327 69.3663C176.568 71.8518 199.661 77.6361 186.1 80.8895C172.539 84.143 149.028 80.3838 138.968 78.0975" stroke="black" stroke-width="1.8478" stroke-linejoin="round"/>
<path d="M134.66 82.2368C136.524 85.7185 141.954 81.3442 144.436 78.7218L142.329 75.3175C138.996 76.1732 132.795 78.7552 134.66 82.2368Z" fill="#E3E3E3"/>
<path d="M156.88 66.9602C144.351 60.8625 121.624 51.3495 130.943 62.079C140.261 72.8085 162.111 84.141 171.87 88.4661" stroke="black" stroke-width="1.8478" stroke-linejoin="round"/>
<path d="M173.231 95.153C169.52 96.7676 167.656 89.9509 167.188 86.3407L171.054 84.9365C173.326 87.6693 176.941 93.5385 173.231 95.153Z" fill="#E3E3E3"/>
<defs>
<filter id="filter0_i_182_12901" x="-78" y="22" width="516" height="188" filterUnits="userSpaceOnUse" color-interpolation-filters="sRGB">
<feFlood flood-opacity="0" result="BackgroundImageFix"/>
<feBlend mode="normal" in="SourceGraphic" in2="BackgroundImageFix" result="shape"/>
<feColorMatrix in="SourceAlpha" type="matrix" values="0 0 0 0 0 0 0 0 0 0 0 0 0 0 0 0 0 0 127 0" result="hardAlpha"/>
<feOffset dy="4"/>
<feGaussianBlur stdDeviation="2"/>
<feComposite in2="hardAlpha" operator="arithmetic" k2="-1" k3="1"/>
<feColorMatrix type="matrix" values="0 0 0 0 0 0 0 0 0 0 0 0 0 0 0 0 0 0 0.25 0"/>
<feBlend mode="normal" in2="shape" result="effect1_innerShadow_182_12901"/>
</filter>
<filter id="filter1_d_182_12901" x="204.729" y="75.6831" width="91.8687" height="92.1171" filterUnits="userSpaceOnUse" color-interpolation-filters="sRGB">
<feFlood flood-opacity="0" result="BackgroundImageFix"/>
<feColorMatrix in="SourceAlpha" type="matrix" values="0 0 0 0 0 0 0 0 0 0 0 0 0 0 0 0 0 0 127 0" result="hardAlpha"/>
<feOffset dy="7"/>
<feGaussianBlur stdDeviation="7"/>
<feComposite in2="hardAlpha" operator="out"/>
<feColorMatrix type="matrix" values="0 0 0 0 0.665553 0 0 0 0 0 0 0 0 0 0 0 0 0 0.15 0"/>
<feBlend mode="normal" in2="BackgroundImageFix" result="effect1_dropShadow_182_12901"/>
<feBlend mode="normal" in="SourceGraphic" in2="effect1_dropShadow_182_12901" result="shape"/>
</filter>
</defs>
</svg>
