<svg width="268" height="192" viewBox="0 0 268 192" fill="none" xmlns="http://www.w3.org/2000/svg">
<circle cx="138" cy="62" r="62" fill="white"/>
<path d="M199.995 71.247C203.387 67.0599 210.04 68.1148 211.97 73.1459L241.129 149.151C243.059 154.182 238.819 159.416 233.497 158.572L153.095 145.822C147.773 144.978 145.361 138.689 148.753 134.502L199.995 71.247Z" fill="#3CD1E6"/>
<path d="M135.214 30.0001C139.482 41.3924 152.575 43.0706 159.303 35.7225" stroke="black" stroke-width="5" stroke-linecap="round"/>
<path d="M187.214 121C191.482 132.392 204.575 134.071 211.303 126.722" stroke="black" stroke-width="5" stroke-linecap="round"/>
<path d="M165.775 26.2725C164.363 24.9682 160.369 22.4685 155.693 22.9042" stroke="black" stroke-width="5" stroke-linecap="round"/>
<path d="M217.775 117.272C216.363 115.968 212.369 113.468 207.693 113.904" stroke="black" stroke-width="5" stroke-linecap="round"/>
<path d="M145.252 20.9043C143.84 19.6 139.846 17.1003 135.17 17.536" stroke="black" stroke-width="5" stroke-linecap="round"/>
<path d="M197.252 111.904C195.84 110.6 191.846 108.1 187.17 108.536" stroke="black" stroke-width="5" stroke-linecap="round"/>
<rect y="84.1602" width="90" height="70" rx="7" transform="rotate(-23.6895 0 84.1602)" fill="#FC9800"/>
<path d="M29.0522 102.858C32.1858 106.42 45.1857 98.9197 43.1858 92.9197" stroke="black" stroke-width="5" stroke-linecap="round"/>
<path d="M42 81.3954C39.3693 83.7633 38.5798 84.1581 35.3503 86.5158" stroke="black" stroke-width="5" stroke-linecap="round"/>
<path d="M28.6494 90.8695C26.0187 93.2375 25.2292 93.6322 21.9997 95.9899" stroke="black" stroke-width="5" stroke-linecap="round"/>
</svg>
