<svg width="49" height="24" viewBox="0 0 49 24" fill="none" xmlns="http://www.w3.org/2000/svg">
<g id="Logo" clip-path="url(#clip0_156_4171)">
<path id="Vector" d="M5.78508 16.0878H1.79728L0.00830078 23.8683H2.04286L2.71617 20.9408H3.76679L5.57854 23.8683H7.80663L5.77533 20.7701C7.57732 20.3017 8.19045 19.3356 8.30429 18.3029C8.41814 17.2702 7.84241 16.0862 5.78346 16.0862L5.78508 16.0878ZM6.27299 18.4151C6.18842 19.1763 5.47445 19.6251 4.48401 19.6251H3.02029L3.56349 17.2783H5.1069C5.92495 17.2783 6.35105 17.6784 6.27136 18.4151H6.27299ZM11.4773 16.0895H13.5249L13.0483 18.1549L11.731 23.865H9.66067L11.4773 16.0895ZM28.7914 15.6585L28.806 23.8634H26.8544L26.8755 18.0085L22.73 23.8634H20.8385L19.1228 17.976L16.3759 23.8634H14.1071L18.1648 15.3234C18.4592 14.7721 18.7438 14.5265 19.3033 14.5233C19.6741 14.5233 20.0774 14.7363 20.2612 15.3836L22.0323 21.7898L26.6397 15.2421C27.0317 14.6875 27.3618 14.5184 27.8172 14.5298C28.3051 14.5428 28.793 14.8632 28.793 15.6585H28.7914ZM42.5974 20.1553C42.4592 21.406 43.4106 22.3916 45.076 22.4159C45.8944 22.4387 46.7111 22.3289 47.4944 22.0907L47.0992 23.8C46.4253 23.925 45.7418 23.9903 45.0565 23.9951C41.781 23.9951 40.2588 22.3688 40.5027 20.1163C40.7792 17.5727 43.0235 15.8618 46.5592 15.8618C47.3101 15.873 48.0578 15.9613 48.7906 16.1252L48.4328 17.6914C47.7406 17.5247 47.0305 17.4439 46.3185 17.4507C44.2563 17.4344 42.7828 18.4639 42.5991 20.1553H42.5974ZM34.1518 20.9571L36.0563 18.2688L36.6515 20.9571H34.1518ZM37.3476 23.865H39.3252L37.4322 17.0913C37.185 16.27 36.6987 16.0537 36.1929 16.0976C35.8757 16.1252 35.5423 16.2602 35.2073 16.74L30.2958 23.8666H32.3108L33.3094 22.2728H36.9703L37.3508 23.8715L37.3476 23.865ZM40.8263 6.46311C40.4116 6.6046 22.1103 11.6674 21.842 11.7308C21.6602 11.7875 21.4667 11.795 21.281 11.7528C21.0954 11.7105 20.9242 11.6199 20.7849 11.4901C20.297 11.0462 20.497 10.4298 20.6353 10.1175C20.7979 9.74996 24.3222 2.33544 24.3222 2.33544L10.2527 8.2342C9.66555 8.43912 9.46551 7.9561 9.46551 7.9561C9.46551 7.9561 9.21993 7.42103 9.86071 7.11853L25.311 0.178907C25.5647 0.0650629 26.0412 -0.159373 26.412 0.178907C26.7828 0.517187 26.6381 1.02786 26.5243 1.34337C26.469 1.493 23.9384 8.52207 23.9384 8.52207C23.9384 8.52207 39 2.05896 39.4879 1.87519C40.4425 1.51251 41.311 1.72719 41.9274 2.44603C42.2023 2.77498 42.3939 3.16534 42.4859 3.58406C42.5779 4.00278 42.5676 4.4375 42.4559 4.8514C42.2429 5.57838 41.7729 6.13459 40.8296 6.45661L40.8263 6.46311Z" fill="white"/>
</g>
<defs>
<clipPath id="clip0_156_4171">
<rect width="48.7904" height="24" fill="white"/>
</clipPath>
</defs>
</svg>
